<svg width="493" height="159" viewBox="0 0 493 159" fill="none" xmlns="http://www.w3.org/2000/svg">
<path d="M187.185 2.8206L122.641 156.595H80.5306L48.7682 33.8678C46.8399 26.3085 45.1735 23.5392 39.2986 20.3545C29.7236 15.1672 13.9118 10.3003 0.0128403 7.27716L0.944914 2.8206H68.7321C77.3724 2.8206 85.1396 8.56438 87.1014 18.5006L103.876 107.478L145.332 2.8206H187.185ZM352.18 106.396C352.349 65.8073 295.978 63.5738 296.366 45.4399C296.487 39.9218 301.758 34.0549 313.264 32.5575C318.972 31.8113 334.699 31.242 352.55 39.4397L359.547 6.82843C349.949 3.33344 337.616 0 322.271 0C282.896 0 255.185 20.9032 254.952 50.835C254.695 72.9741 274.723 85.3284 289.823 92.685C305.35 100.219 310.56 105.06 310.501 111.798C310.391 122.114 298.117 126.671 286.647 126.848C266.619 127.155 255.006 121.437 245.744 117.137L238.523 150.828C247.831 155.092 265.012 158.813 282.824 159C324.677 159 352.052 138.356 352.18 106.385V106.396ZM456.156 156.595H492.997L460.84 2.8206H426.833C423.202 2.78935 419.644 3.84821 416.623 5.85992C413.601 7.87163 411.254 10.7434 409.886 14.103L350.103 156.595H391.933L400.237 133.625H451.334L456.156 156.595ZM411.707 102.106L432.675 44.3604L444.743 102.101L411.707 102.106ZM244.103 2.8206L211.162 156.595H171.327L204.281 2.8206H244.103Z" fill="#1434CB"/>
</svg>
